#N canvas -8 -8 1370 729 12;
#X obj 995 552 catch~ L;
#X obj 1021 581 catch~ R;
#X obj 22 64 adc~ 1;
#X obj 240 78 bng 25 250 50 0 empty empty empty 17 7 0 10 -4034 -262144
-1;
#X obj 537 64 adc~ 2;
#X obj 849 81 vsl 20 128 700 22000 0 0 empty empty Filter_freq 25 2
0 10 -4034 -262144 -1 1690 1;
#X obj 187 302 *~;
#X obj 702 308 *~, f 6;
#X obj 24 473 vsl 25 128 0 1 0 0 \$0-condenser-gain empty Ganancia_condenser
0 -9 0 10 -4034 -262144 -1 0 1;
#X obj 996 610 dac~;
#X msg 205 156 \$1 5;
#X obj 205 180 line~;
#X msg 741 255 \$1 5;
#X obj 741 279 line~;
#X obj 142 473 vsl 25 128 0 1 0 0 \$0-condenser-resynth-gain empty
Ganancia_resynth 30 7 0 10 -4034 -262144 -1 0 1;
#X obj 205 132 r \$0-condenser-resynth-gain;
#X obj 22 190 *~;
#X obj 22 248 throw~ L;
#X obj 117 248 throw~ R;
#X msg 40 137 \$1 5;
#X obj 40 161 line~;
#X obj 40 113 r \$0-condenser-gain;
#X obj 656 473 vsl 25 128 0 1 0 0 \$0-contacto-delay-gain empty Ganancia_delay/granos
30 7 0 10 -4034 -262144 -1 0 1;
#X obj 691 579 tgl 25 0 \$0-contacto-delay-pass empty delay_pass/granos_rec
30 12 0 10 -4034 -1 -1 0 1;
#X obj 741 231 r \$0-contacto-delay-gain;
#X obj 142 423 ctlin 1 5;
#X obj 702 212 hip~;
#X obj 849 55 expr $f1/127*20000+700;
#X obj 187 244 lop~;
#X obj 240 54 ctlin 22 16;
#X obj 691 550 ctlin 24 16;
#X obj 656 423 ctlin 1 6;
#X obj 849 31 ctlin 0 6;
#X obj 254 225 * 1000;
#X obj 331 30 ctlin 0 5;
#X obj 117 171 loadbang;
#X msg 117 195 0;
#X obj 22 219 flautalab/pan~;
#X obj 702 366 throw~ L;
#X obj 797 366 throw~ R;
#X obj 797 289 loadbang;
#X msg 797 313 0;
#X obj 702 337 flautalab/pan~;
#X obj 187 389 throw~ L;
#X obj 282 389 throw~ R;
#X obj 282 312 loadbang;
#X msg 282 336 0;
#X obj 187 360 flautalab/pan~;
#X obj 589 300 hradio 25 1 0 2 \$0-delgran empty delay/granola 0 -8
0 10 -4034 -262144 -1 1;
#N canvas 78 78 1366 685 delay 0;
#X obj 23 21 inlet~;
#X obj 41 50 r \$0-contacto-delay-pass;
#X msg 41 146 \$1 5;
#X obj 23 194 *~;
#X obj 41 170 line~;
#X msg 167 194 300;
#X msg 216 194 0.8;
#X obj 167 165 loadbang;
#X obj 23 529 *~;
#X obj 41 433 r \$0-delgran;
#X obj 23 553 outlet~;
#X msg 41 481 \$1 1;
#X obj 41 505 line~;
#X obj 41 457 == 0;
#X obj 80 74 r \$0-delgran;
#X obj 41 122 spigot;
#X obj 80 98 == 0;
#X obj 23 223 flautalab/delay~;
#X msg 71 194 1;
#X msg 119 194 1;
#X connect 0 0 3 0;
#X connect 1 0 15 0;
#X connect 2 0 4 0;
#X connect 3 0 17 0;
#X connect 4 0 3 1;
#X connect 5 0 17 3;
#X connect 6 0 17 4;
#X connect 7 0 5 0;
#X connect 7 0 6 0;
#X connect 7 0 19 0;
#X connect 7 0 18 0;
#X connect 8 0 10 0;
#X connect 9 0 13 0;
#X connect 11 0 12 0;
#X connect 12 0 8 1;
#X connect 13 0 11 0;
#X connect 14 0 16 0;
#X connect 15 0 2 0;
#X connect 16 0 15 1;
#X connect 17 0 8 0;
#X connect 18 0 17 1;
#X connect 19 0 17 2;
#X restore 702 103 pd delay;
#X obj 187 103 flautalab/resynth~;
#X text 18 609 agregar ctlin en caso \; de no poder amplificar \; directo
el micro \;;
#N canvas 26 26 450 300 reverb 0;
#X obj 57 65 inlet~;
#X obj 57 216 outlet~;
#X obj 57 187 rev2~, f 10;
#X msg 73 133 100;
#X msg 124 157 75;
#X msg 107 133 6000;
#X obj 107 94 loadbang;
#X msg 90 157 90;
#X connect 0 0 2 0;
#X connect 2 0 1 0;
#X connect 3 0 2 1;
#X connect 4 0 2 4;
#X connect 5 0 2 3;
#X connect 6 0 3 0;
#X connect 6 0 5 0;
#X connect 6 0 4 0;
#X connect 6 0 7 0;
#X connect 7 0 2 2;
#X restore 197 331 pd reverb;
#X obj 331 78 nbx 5 25 -1e+037 1e+037 0 0 empty empty empty 0 -8 0
10 -4034 -1 -1 -35.4331 256;
#N canvas 52 52 1366 685 granos 0;
#X obj 45 173 flautalab/granos-rt~;
#X msg 45 149 48 127;
#X msg 432 144 rec \$1;
#X obj 432 94 tgl 15 0 empty empty empty 17 7 0 10 -262144 -1 -1 0
1;
#X obj 471 46 r \$0-delgran;
#X obj 432 17 r \$0-contacto-delay-pass;
#X obj 45 511 *~;
#X obj 432 70 spigot;
#X obj 63 439 r \$0-delgran;
#X obj 498 120 loadbang;
#X obj 45 535 outlet~;
#X obj 238 144 inlet~;
#X msg 63 463 \$1 1;
#X obj 63 487 line~;
#X obj 45 125 delay 5;
#X obj 45 101 sel 0;
#X obj 432 114 != 0;
#X obj 969 95 ctlin 16 16;
#X obj 969 119 expr 50+($f1/127)*300;
#X msg 969 143 grain rate \$1;
#X msg 498 144 offset playhead chance 100 \, grain duration 700;
#X floatatom 890 197 5 0 0 0 - - -;
#X connect 0 0 6 0;
#X connect 1 0 0 0;
#X connect 2 0 0 2;
#X connect 3 0 15 0;
#X connect 3 0 16 0;
#X connect 4 0 7 1;
#X connect 5 0 7 0;
#X connect 6 0 10 0;
#X connect 7 0 3 0;
#X connect 8 0 12 0;
#X connect 9 0 20 0;
#X connect 11 0 0 1;
#X connect 12 0 13 0;
#X connect 13 0 6 1;
#X connect 14 0 1 0;
#X connect 15 0 14 0;
#X connect 16 0 2 0;
#X connect 17 0 18 0;
#X connect 18 0 19 0;
#X connect 18 0 21 0;
#X connect 19 0 0 2;
#X connect 20 0 0 2;
#X restore 772 103 pd granos;
#X obj 545 473 vsl 25 128 0 1 0 0 \$0-contacto-gain empty Ganancia_contacto
0 -9 0 10 -4034 -262144 -1 0 1;
#X text 523 615 agregar ctlin en caso \; de no poder amplificar \;
directo el micro \;;
#X obj 537 190 *~;
#X obj 537 248 throw~ L;
#X obj 632 248 throw~ R;
#X msg 555 137 \$1 5;
#X obj 555 161 line~;
#X obj 632 171 loadbang;
#X msg 632 195 0;
#X obj 537 219 flautalab/pan~;
#X obj 555 113 r \$0-contacto-gain;
#X obj 22 15 bng 15 250 50 0 empty empty empty 17 7 0 10 -262144 -1
-1;
#X obj 22 35 tabplay~ multi;
#X msg 1035 170 read -resize ./multi.wav multi;
#X obj 1035 194 soundfiler;
#N canvas 0 50 450 250 (subpatch) 0;
#X array multi 271395 float 2;
#X coords 0 1 271395 -1 100 50 1 0 0;
#X restore 1035 301 graph;
#X obj 187 273 lop~ 1000;
#X obj 537 15 bng 15 250 50 0 empty empty empty 17 7 0 10 -262144 -1
-1;
#X obj 537 35 tabplay~ keyrain;
#X obj 1055 247 soundfiler;
#X msg 1055 223 read -resize ./keyrain.wav keyrain;
#X obj 1035 141 loadbang;
#N canvas 0 50 450 250 (subpatch) 0;
#X array keyrain 252813 float 2;
#X coords 0 1 252813 -1 100 50 1 0 0;
#X restore 1035 376 graph;
#X obj 702 236 hip~;
#X obj 702 260 hip~;
#X obj 702 284 hip~;
#X obj 329 456 tgl 25 0 empty empty empty 17 7 0 10 -4034 -1 -1 1 1
;
#X obj 352 515 t b b;
#X obj 404 539 f;
#X obj 439 539 + 1;
#X msg 404 563 open rec\$1.wav;
#X msg 352 539 start;
#X obj 329 486 sel 0 1;
#X msg 329 563 stop;
#X obj 329 592 writesf~ 2;
#X msg 422 510 0;
#X obj 331 54 expr ($f1/127*600)-300;
#X obj 656 447 / 16;
#X obj 142 447 / 32;
#X connect 0 0 9 0;
#X connect 1 0 9 1;
#X connect 2 0 16 0;
#X connect 2 0 50 0;
#X connect 2 0 89 0;
#X connect 3 0 50 1;
#X connect 4 0 49 0;
#X connect 4 0 54 0;
#X connect 4 0 57 0;
#X connect 4 0 89 1;
#X connect 5 0 26 1;
#X connect 5 0 78 1;
#X connect 5 0 79 1;
#X connect 5 0 80 1;
#X connect 6 0 52 0;
#X connect 6 0 47 0;
#X connect 7 0 42 0;
#X connect 10 0 11 0;
#X connect 11 0 6 1;
#X connect 12 0 13 0;
#X connect 13 0 7 1;
#X connect 15 0 10 0;
#X connect 15 0 33 0;
#X connect 16 0 37 0;
#X connect 19 0 20 0;
#X connect 20 0 16 1;
#X connect 21 0 19 0;
#X connect 24 0 12 0;
#X connect 25 0 93 0;
#X connect 26 0 78 0;
#X connect 27 0 5 0;
#X connect 28 0 71 0;
#X connect 29 0 3 0;
#X connect 30 0 23 0;
#X connect 31 0 92 0;
#X connect 32 0 27 0;
#X connect 33 0 28 1;
#X connect 34 0 91 0;
#X connect 35 0 36 0;
#X connect 36 0 37 1;
#X connect 37 0 17 0;
#X connect 37 1 18 0;
#X connect 40 0 41 0;
#X connect 41 0 42 1;
#X connect 42 0 38 0;
#X connect 42 1 39 0;
#X connect 45 0 46 0;
#X connect 46 0 47 1;
#X connect 47 0 43 0;
#X connect 47 1 44 0;
#X connect 49 0 26 0;
#X connect 50 0 28 0;
#X connect 52 0 47 0;
#X connect 53 0 50 1;
#X connect 54 0 26 0;
#X connect 57 0 64 0;
#X connect 60 0 61 0;
#X connect 61 0 57 1;
#X connect 62 0 63 0;
#X connect 63 0 64 1;
#X connect 64 0 58 0;
#X connect 64 1 59 0;
#X connect 65 0 60 0;
#X connect 66 0 67 0;
#X connect 67 0 16 0;
#X connect 67 0 50 0;
#X connect 68 0 69 0;
#X connect 71 0 6 0;
#X connect 72 0 73 0;
#X connect 73 0 57 0;
#X connect 73 0 49 0;
#X connect 73 0 54 0;
#X connect 75 0 74 0;
#X connect 76 0 68 0;
#X connect 76 0 75 0;
#X connect 78 0 79 0;
#X connect 79 0 80 0;
#X connect 80 0 7 0;
#X connect 81 0 87 0;
#X connect 82 0 86 0;
#X connect 82 1 83 0;
#X connect 83 0 84 0;
#X connect 83 0 85 0;
#X connect 84 0 83 1;
#X connect 85 0 89 0;
#X connect 86 0 89 0;
#X connect 87 0 88 0;
#X connect 87 1 82 0;
#X connect 88 0 89 0;
#X connect 90 0 83 1;
#X connect 91 0 53 0;
#X connect 92 0 22 0;
#X connect 93 0 14 0;
