#N canvas -8 -8 1600 857 12;
#X obj -12 1 cnv 15 475 670 empty empty RESÍNTESIS 228 647 0 40 -203904
-1 0;
#X obj 544 1 cnv 15 430 565 empty empty GRANOS 84 26 0 40 -203904 -1
0;
#X obj 1138 261 catch~ L;
#X obj 1175 290 catch~ R;
#X obj 131 165 bng 25 250 50 0 empty empty RESYNTH 30 12 0 15 -4034
-262144 -1;
#X obj 8 545 *~;
#X obj 564 438 *~;
#X obj 1138 554 dac~, f 6;
#X msg 26 415 \$1 5;
#X obj 26 439 line~;
#X msg 733 390 \$1 5;
#X obj 733 414 line~;
#X obj 33 274 vsl 25 128 0 4 0 0 empty empty GANANCIA 30 7 0 15 -4034
-262144 -1 12700 1;
#X obj 733 254 vsl 25 128 0 8 0 0 empty empty GANANCIA 30 7 0 15 -4034
-262144 -1 0 1;
#X obj 624 165 tgl 25 0 \$0-contacto-delay-pass empty REC 30 12 0 15
-4034 -1 -1 0 1;
#X obj 8 497 lop~;
#X obj 131 141 ctlin 22 16;
#X obj 624 136 ctlin 24 16;
#X obj 33 468 * 1000;
#X obj 564 527 throw~ L;
#X obj 641 527 throw~ R;
#X obj 8 812 throw~ L;
#X obj 88 812 throw~ R;
#X obj 8 200 flautalab/resynth~;
#N canvas 26 26 450 300 reverb 0;
#X obj 57 65 inlet~;
#X obj 57 216 outlet~;
#X obj 57 187 rev2~, f 10;
#X msg 73 133 100;
#X msg 124 157 75;
#X msg 107 133 6000;
#X obj 107 94 loadbang;
#X msg 90 157 83;
#X connect 0 0 2 0;
#X connect 2 0 1 0;
#X connect 3 0 2 1;
#X connect 4 0 2 4;
#X connect 5 0 2 3;
#X connect 6 0 3 0;
#X connect 6 0 5 0;
#X connect 6 0 4 0;
#X connect 6 0 7 0;
#X connect 7 0 2 2;
#X restore 18 772 pd reverb;
#X obj 243 175 nbx 5 25 -1e+037 1e+037 0 0 empty empty TRANSPOSICIÓN
85 12 0 15 -4034 -1 -1 0 256;
#N canvas -8 -8 1600 857 granos 0;
#X obj 45 173 flautalab/granos-rt~;
#X msg 45 149 48 127;
#X msg 432 144 rec \$1;
#X obj 642 520 loadbang;
#X obj 45 519 outlet~;
#X obj 238 144 inlet~;
#X obj 45 125 delay 5;
#X obj 45 101 sel 0;
#X obj 432 114 != 0;
#X msg 710 351 grain rate \$1;
#X msg 900 352 grain duration \$1;
#X obj 710 245 - 50;
#X obj 710 216 random 200;
#X obj 918 183 * 3;
#X obj 918 101 / 127;
#X obj 752 245 expr 1-$f1;
#X obj 918 207 + 0.6;
#X msg 1001 206 offset duration chance \$1;
#X obj 550 38 / 127;
#X obj 432 62 inlet;
#X obj 550 14 inlet;
#X obj 918 64 inlet;
#X obj 710 111 loadbang;
#X obj 710 163 random 2;
#X obj 710 291 +;
#X obj 710 187 sel 0 1;
#X obj 900 260 random 300;
#X obj 900 284 + 100;
#X obj 900 313 +;
#X msg 1033 390 offset duration \$1;
#X obj 1033 366 + 125;
#X obj 1033 342 * -1;
#X obj 300 557 osc~;
#X obj 340 629 sig~ 1;
#X msg 393 605 \$1 1;
#X obj 393 629 line~;
#X obj 340 653 *~, f 8;
#X obj 393 581 expr 1-$f1;
#X msg 346 533 \$1 1;
#X obj 346 557 line~;
#X obj 300 581 *~, f 7;
#X msg 300 504 \$1 1;
#X obj 300 528 line~;
#X obj 45 454 *~;
#X obj 1001 177 * 60;
#X obj 752 272 * 90;
#X msg 550 154 offset pitch \$1;
#X obj 918 231 * 200;
#X obj 550 82 * 28;
#X obj 550 106 - 14;
#X obj 300 480 + 20;
#X obj 710 139 metro 300;
#X obj 115 454 *~;
#X obj 115 519 outlet~;
#X msg 642 544 offset playhead chance 100 \, grain duration 700 \,
offset duration precision 80 \, offset pitch chance 90 \, offset pitch
precision 50;
#X obj 458 533 * 0.8;
#X obj 300 456 * 150;
#X obj 710 322 + 50;
#X floatatom 752 296 5 0 0 0 - - -;
#X floatatom 1004 262 5 0 0 0 - - -;
#X obj 918 125 * 0.8;
#X obj 918 149 + 0.2;
#X connect 0 0 43 0;
#X connect 0 1 52 0;
#X connect 1 0 0 0;
#X connect 2 0 0 2;
#X connect 3 0 54 0;
#X connect 5 0 0 1;
#X connect 6 0 1 0;
#X connect 7 0 6 0;
#X connect 8 0 2 0;
#X connect 9 0 0 2;
#X connect 10 0 0 2;
#X connect 11 0 24 0;
#X connect 12 0 11 0;
#X connect 13 0 16 0;
#X connect 14 0 15 0;
#X connect 14 0 44 0;
#X connect 14 0 55 0;
#X connect 14 0 56 0;
#X connect 14 0 60 0;
#X connect 15 0 45 0;
#X connect 16 0 47 0;
#X connect 17 0 0 2;
#X connect 18 0 48 0;
#X connect 19 0 8 0;
#X connect 19 0 7 0;
#X connect 20 0 18 0;
#X connect 21 0 14 0;
#X connect 22 0 51 0;
#X connect 23 0 25 0;
#X connect 24 0 57 0;
#X connect 25 0 12 0;
#X connect 25 1 26 0;
#X connect 26 0 27 0;
#X connect 27 0 28 0;
#X connect 28 0 10 0;
#X connect 28 0 31 0;
#X connect 29 0 0 2;
#X connect 30 0 29 0;
#X connect 31 0 30 0;
#X connect 32 0 40 0;
#X connect 33 0 36 0;
#X connect 34 0 35 0;
#X connect 35 0 36 1;
#X connect 36 0 43 1;
#X connect 36 0 52 1;
#X connect 37 0 34 0;
#X connect 38 0 39 0;
#X connect 39 0 40 1;
#X connect 40 0 43 1;
#X connect 40 0 52 1;
#X connect 41 0 42 0;
#X connect 42 0 32 0;
#X connect 43 0 4 0;
#X connect 44 0 17 0;
#X connect 45 0 24 1;
#X connect 45 0 58 0;
#X connect 46 0 0 2;
#X connect 47 0 28 1;
#X connect 47 0 59 0;
#X connect 48 0 49 0;
#X connect 49 0 46 0;
#X connect 50 0 41 0;
#X connect 51 0 23 0;
#X connect 52 0 53 0;
#X connect 54 0 0 2;
#X connect 55 0 37 0;
#X connect 55 0 38 0;
#X connect 56 0 50 0;
#X connect 57 0 9 0;
#X connect 60 0 61 0;
#X connect 61 0 13 0;
#X restore 564 200 pd granos;
#X f 10;
#X obj 8 521 lop~ 1000;
#X obj 243 107 expr ($f1/127*600)-300;
#X obj 733 228 / 16;
#X obj 33 248 / 32;
#X obj 564 21 adc~ 3;
#X obj 8 21 adc~ 1 2, f 9;
#X obj 8 171 *~;
#X obj 68 171 *~;
#X obj 26 62 vsl 16 48 0 1 0 0 empty empty mic1 0 -9 0 15 -4034 -262144
-1 4700 1;
#N canvas 173 71 1366 685 pitch 0;
#X obj 132 116 inlet;
#X obj 132 145 route bang float;
#X msg 132 272 0;
#X obj 540 243 f;
#X obj 125 388 spigot;
#X obj 186 301 change;
#X obj 132 174 t b b, f 63;
#X obj 186 330 spigot;
#X msg 570 272 1;
#X obj 272 330 sel 1;
#X msg 272 359 0;
#X obj 186 359 t f f;
#X obj 132 427 outlet;
#X obj 132 301 t f f;
#X obj 186 272 expr if(($f2>0&&$f1<=0)||($f2<0&&$f1>=0) \, 1 \, 0)
;
#X connect 0 0 1 0;
#X connect 1 0 6 0;
#X connect 1 1 4 0;
#X connect 1 1 3 1;
#X connect 1 1 14 0;
#X connect 2 0 13 0;
#X connect 3 0 14 1;
#X connect 4 0 12 0;
#X connect 5 0 7 0;
#X connect 6 0 2 0;
#X connect 6 1 3 0;
#X connect 6 1 8 0;
#X connect 7 0 11 0;
#X connect 8 0 7 1;
#X connect 9 0 10 0;
#X connect 10 0 7 1;
#X connect 11 0 4 1;
#X connect 11 1 9 0;
#X connect 13 0 12 0;
#X connect 13 1 4 1;
#X connect 14 0 5 0;
#X restore 243 136 pd pitch;
#X obj 320 72 bng 25 250 50 0 empty empty llevar\\\ a\\\ 0 30 12 0
15 -4034 -262144 -1;
#X msg 26 118 \$1 5;
#X obj 26 142 line~;
#X obj 86 62 vsl 16 48 0 1 0 0 empty empty mic2 0 -9 0 15 -4034 -262144
-1 0 1;
#X msg 86 118 \$1 5;
#X obj 86 142 line~;
#X obj 564 171 *~;
#X obj 582 62 vsl 16 48 0 1 0 0 empty empty mic3 0 -9 0 15 -4034 -262144
-1 4700 1;
#X msg 582 118 \$1 5;
#X obj 582 142 line~;
#X obj 733 69 vsl 25 128 0 127 0 0 empty empty ALTURA 30 7 0 15 -4034
-262144 -1 0 1;
#X obj 832 69 vsl 25 128 0 127 0 0 empty empty INTENSIDAD? 30 7 0 15
-4034 -262144 -1 0 1;
#X obj 320 43 ctlin 12 16;
#X obj 243 205 vsl 25 128 -300 300 0 0 empty empty empty 30 7 0 15
-4034 -262144 -1 6350 1;
#N canvas 651 192 809 427 samples 0;
#X msg 156 80 read -resize keyrain.wav llaves;
#X obj 156 109 soundfiler;
#X floatatom 156 138 5 0 0 0 - - -;
#N canvas 0 50 450 250 (subpatch) 0;
#X array llaves 1.51283e+006 float 2;
#X coords 0 1 1.51283e+006 -1 200 140 1 0 0;
#X restore 452 40 graph;
#X obj 156 299 soundfiler;
#X floatatom 156 328 5 0 0 0 - - -;
#N canvas 0 50 450 250 (subpatch) 0;
#X array maqueta 1.70972e+007 float 2;
#X coords 0 1 1.70972e+007 -1 200 140 1 0 0;
#X restore 468 240 graph;
#X msg 156 270 read -resize FLAUTALAB_MAQUETA.wav maqueta;
#X obj 156 51 loadbang;
#X obj 156 241 loadbang;
#X connect 0 0 1 0;
#X connect 1 0 2 0;
#X connect 4 0 5 0;
#X connect 7 0 4 0;
#X connect 8 0 0 0;
#X connect 9 0 7 0;
#X restore 925 718 pd samples;
#X obj 481 732 tabplay~ maqueta;
#X obj 799 799 tabplay~ llaves;
#X obj 799 760 bng 15 250 50 0 empty empty empty 17 7 0 10 -262144
-1 -1;
#X obj 481 708 bng 15 250 50 0 empty empty empty 17 7 0 10 -262144
-1 -1;
#X obj 481 803 throw~ L;
#X obj 576 803 throw~ R;
#X obj 481 756 *~;
#X obj 516 669 vsl 16 48 0 1 0 0 empty empty maketa 0 -9 0 15 -4034
-262144 -1 0 1;
#X msg 617 713 stop;
#X obj 481 605 ctlin 19 15;
#X obj 481 629 sel 127;
#X obj 617 645 ctlin 20 15;
#X obj 617 669 sel 127;
#X obj 617 693 bng 15 250 50 0 empty empty empty 17 7 0 10 -262144
-1 -1;
#X msg 481 57 1;
#X obj 481 28 loadbang;
#X obj 832 44 ctlin 16 16;
#X obj 733 43 ctlin 1 6;
#X obj 733 204 ctlin 1 5;
#X obj 33 224 ctlin 1 1;
#X obj 243 78 ctlin 1 2;
#X obj 277 21 loadbang;
#X obj 842 15 loadbang;
#X obj 1138 384 flautalab/master~;
#X obj 1138 319 *~;
#X obj 1175 319 *~;
#X obj 1245 140 vsl 25 128 0 3 0 0 empty empty empty 0 -9 0 10 -260145
-262144 -1 4400 1;
#X msg 1245 276 \$1 1;
#X obj 1245 300 line~;
#X obj 1294 271 nbx 5 25 -1e+037 1e+037 0 0 empty empty GANANCIA_MAIN
85 12 0 15 -260145 -1 -1 1.03937 256;
#X obj 631 438 *~;
#X obj 564 467 flautalab/stom~;
#X obj 658 467 loadbang;
#X msg 658 491 0.5;
#X obj 88 545 *~;
#X obj 88 497 lop~;
#X obj 88 521 lop~ 1000;
#N canvas 26 26 450 300 reverb 0;
#X obj 57 65 inlet~;
#X obj 57 216 outlet~;
#X obj 57 187 rev2~, f 10;
#X msg 73 133 100;
#X msg 124 157 75;
#X msg 107 133 6000;
#X obj 107 94 loadbang;
#X msg 90 157 83;
#X connect 0 0 2 0;
#X connect 2 0 1 0;
#X connect 3 0 2 1;
#X connect 4 0 2 4;
#X connect 5 0 2 3;
#X connect 6 0 3 0;
#X connect 6 0 5 0;
#X connect 6 0 4 0;
#X connect 6 0 7 0;
#X connect 7 0 2 2;
#X restore 98 772 pd reverb;
#X obj 8 574 flautalab/3bandsplit~;
#X obj 8 697 flautalab/stom~;
#X obj 102 697 loadbang;
#X msg 102 721 1;
#X msg 101 603 low -6 \, mid 0 \, hi 0 \, freq low 500 \, freq hi 1500
;
#X obj 101 574 loadbang;
#X connect 2 0 76 0;
#X connect 3 0 77 0;
#X connect 4 0 23 1;
#X connect 5 0 90 0;
#X connect 6 0 83 0;
#X connect 8 0 9 0;
#X connect 9 0 5 1;
#X connect 9 0 86 1;
#X connect 10 0 11 0;
#X connect 11 0 6 1;
#X connect 11 0 82 1;
#X connect 12 0 18 0;
#X connect 12 0 8 0;
#X connect 13 0 10 0;
#X connect 14 0 26 1;
#X connect 15 0 27 0;
#X connect 16 0 4 0;
#X connect 17 0 14 0;
#X connect 18 0 15 1;
#X connect 18 0 87 1;
#X connect 23 0 15 0;
#X connect 23 1 87 0;
#X connect 24 0 21 0;
#X connect 25 0 50 0;
#X connect 26 0 6 0;
#X connect 26 1 82 0;
#X connect 27 0 5 0;
#X connect 28 0 36 0;
#X connect 29 0 13 0;
#X connect 30 0 12 0;
#X connect 31 0 43 0;
#X connect 32 0 33 0;
#X connect 32 1 34 0;
#X connect 33 0 23 0;
#X connect 34 0 23 0;
#X connect 35 0 38 0;
#X connect 36 0 25 0;
#X connect 36 0 23 1;
#X connect 37 0 36 0;
#X connect 38 0 39 0;
#X connect 39 0 33 1;
#X connect 40 0 41 0;
#X connect 41 0 42 0;
#X connect 42 0 34 1;
#X connect 43 0 26 0;
#X connect 44 0 45 0;
#X connect 45 0 46 0;
#X connect 46 0 43 1;
#X connect 47 0 26 2;
#X connect 48 0 26 3;
#X connect 49 0 37 0;
#X connect 52 0 58 0;
#X connect 52 0 33 0;
#X connect 53 0 43 0;
#X connect 53 1 54 0;
#X connect 54 0 53 0;
#X connect 55 0 52 0;
#X connect 58 0 56 0;
#X connect 58 0 57 0;
#X connect 59 0 58 1;
#X connect 60 0 52 0;
#X connect 61 0 62 0;
#X connect 62 0 55 0;
#X connect 63 0 64 0;
#X connect 64 0 65 0;
#X connect 65 0 60 0;
#X connect 66 0 44 0;
#X connect 66 0 35 0;
#X connect 66 0 59 0;
#X connect 67 0 66 0;
#X connect 68 0 48 0;
#X connect 69 0 47 0;
#X connect 70 0 29 0;
#X connect 71 0 30 0;
#X connect 72 0 28 0;
#X connect 73 0 37 0;
#X connect 74 0 48 0;
#X connect 75 0 7 0;
#X connect 75 1 7 1;
#X connect 76 0 75 0;
#X connect 77 0 75 1;
#X connect 78 0 79 0;
#X connect 78 0 81 0;
#X connect 79 0 80 0;
#X connect 80 0 77 1;
#X connect 80 0 76 1;
#X connect 82 0 83 1;
#X connect 83 0 19 0;
#X connect 83 1 20 0;
#X connect 84 0 85 0;
#X connect 85 0 83 2;
#X connect 86 0 90 1;
#X connect 87 0 88 0;
#X connect 88 0 86 0;
#X connect 89 0 22 0;
#X connect 90 0 91 0;
#X connect 90 1 91 1;
#X connect 90 2 24 0;
#X connect 90 3 89 0;
#X connect 90 4 24 0;
#X connect 90 5 89 0;
#X connect 91 0 21 0;
#X connect 91 1 22 0;
#X connect 92 0 93 0;
#X connect 93 0 91 2;
#X connect 94 0 90 2;
#X connect 95 0 94 0;
