#N canvas -8 -8 1370 729 12;
#X obj 995 552 catch~ L;
#X obj 1021 581 catch~ R;
#X obj 22 64 adc~ 1;
#X obj 240 78 bng 25 250 50 0 empty empty empty 17 7 0 10 -4034 -262144
-1;
#X obj 537 64 adc~ 2;
#X obj 187 302 *~;
#X obj 702 308 *~, f 6;
#X obj 24 473 vsl 25 128 0 1 0 0 \$0-condenser-gain empty Ganancia_condenser
0 -9 0 10 -4034 -262144 -1 0 1;
#X obj 996 610 dac~;
#X msg 205 156 \$1 5;
#X obj 205 180 line~;
#X msg 741 255 \$1 5;
#X obj 741 279 line~;
#X obj 142 473 vsl 25 128 0 4 0 0 \$0-condenser-resynth-gain empty
Ganancia_resynth 30 7 0 10 -4034 -262144 -1 0 1;
#X obj 205 132 r \$0-condenser-resynth-gain;
#X obj 22 190 *~;
#X obj 22 248 throw~ L;
#X obj 117 248 throw~ R;
#X msg 40 137 \$1 5;
#X obj 40 161 line~;
#X obj 40 113 r \$0-condenser-gain;
#X obj 656 473 vsl 25 128 0 8 0 0 \$0-contacto-delay-gain empty Ganancia_delay/granos
30 7 0 10 -4034 -262144 -1 0 1;
#X obj 691 579 tgl 25 0 \$0-contacto-delay-pass empty delay_pass/granos_rec
30 12 0 10 -4034 -1 -1 0 1;
#X obj 741 231 r \$0-contacto-delay-gain;
#X obj 187 244 lop~;
#X obj 240 54 ctlin 22 16;
#X obj 691 550 ctlin 24 16;
#X obj 254 225 * 1000;
#X obj 117 171 loadbang;
#X msg 117 195 0;
#X obj 22 219 flautalab/pan~;
#X obj 702 366 throw~ L;
#X obj 797 366 throw~ R;
#X obj 797 289 loadbang;
#X msg 797 313 0;
#X obj 702 337 flautalab/pan~;
#X obj 187 389 throw~ L;
#X obj 282 389 throw~ R;
#X obj 282 312 loadbang;
#X msg 282 336 0;
#X obj 187 360 flautalab/pan~;
#X obj 187 103 flautalab/resynth~;
#X text 18 609 agregar ctlin en caso \; de no poder amplificar \; directo
el micro \;;
#N canvas 26 26 450 300 reverb 0;
#X obj 57 65 inlet~;
#X obj 57 216 outlet~;
#X obj 57 187 rev2~, f 10;
#X msg 73 133 100;
#X msg 124 157 75;
#X msg 107 133 6000;
#X obj 107 94 loadbang;
#X msg 90 157 90;
#X connect 0 0 2 0;
#X connect 2 0 1 0;
#X connect 3 0 2 1;
#X connect 4 0 2 4;
#X connect 5 0 2 3;
#X connect 6 0 3 0;
#X connect 6 0 5 0;
#X connect 6 0 4 0;
#X connect 6 0 7 0;
#X connect 7 0 2 2;
#X restore 197 331 pd reverb;
#X obj 331 78 nbx 5 25 -1e+037 1e+037 0 0 empty empty empty 0 -8 0
10 -4034 -1 -1 0 256;
#N canvas 15 14 1366 691 granos 0;
#X obj 45 173 flautalab/granos-rt~;
#X msg 45 149 48 127;
#X msg 432 144 rec \$1;
#X obj 432 86 tgl 15 0 empty empty empty 17 7 0 10 -262144 -1 -1 0
1;
#X obj 432 61 r \$0-contacto-delay-pass;
#X obj 45 511 *~;
#X obj 63 439 r \$0-delgran;
#X obj 498 120 loadbang;
#X obj 45 535 outlet~;
#X obj 238 144 inlet~;
#X msg 63 463 \$1 1;
#X obj 63 487 line~;
#X obj 45 125 delay 5;
#X obj 45 101 sel 0;
#X obj 432 114 != 0;
#X msg 1007 504 grain rate \$1;
#X msg 1122 518 grain duration \$1;
#X obj 1007 334 tgl 15 0 empty empty empty 17 7 0 10 -262144 -1 -1
0 1;
#X obj 1007 475 +;
#X obj 1007 446 *;
#X obj 1007 417 - 50;
#X obj 1007 387 random 200;
#X obj 1007 359 metro 1000;
#X msg 934 362 120;
#X obj 1122 445 * 3;
#X obj 1122 387 / 127;
#X obj 1122 416 expr 1-$f1;
#X obj 1122 493 * 100;
#X obj 1122 469 + 0.6;
#X msg 498 144 offset playhead chance 100 \, grain duration 700 \,
offset duration -500;
#X msg 926 607 offset duration chance \$1;
#X msg 1115 607 offset duration precision \$1;
#X obj 1254 545 * 25;
#X obj 1274 488 * 100;
#X msg 980 154 sample note \$1;
#X obj 980 14 ctlin 1 2;
#X obj 980 38 / 127;
#X obj 980 82 * 24;
#X obj 980 106 - 12;
#X obj 980 131 + 48;
#X obj 980 60 expr 1-$f1;
#X obj 1122 359 ctlin 0 1;
#X connect 0 0 5 0;
#X connect 1 0 0 0;
#X connect 2 0 0 2;
#X connect 3 0 13 0;
#X connect 3 0 14 0;
#X connect 4 0 3 0;
#X connect 5 0 8 0;
#X connect 6 0 10 0;
#X connect 7 0 29 0;
#X connect 9 0 0 1;
#X connect 10 0 11 0;
#X connect 11 0 5 1;
#X connect 12 0 1 0;
#X connect 13 0 12 0;
#X connect 14 0 2 0;
#X connect 15 0 0 2;
#X connect 16 0 0 2;
#X connect 17 0 22 0;
#X connect 18 0 15 0;
#X connect 19 0 18 0;
#X connect 20 0 19 0;
#X connect 21 0 20 0;
#X connect 22 0 21 0;
#X connect 23 0 18 1;
#X connect 24 0 28 0;
#X connect 25 0 26 0;
#X connect 25 0 32 0;
#X connect 25 0 33 0;
#X connect 26 0 19 1;
#X connect 26 0 24 0;
#X connect 27 0 16 0;
#X connect 28 0 27 0;
#X connect 29 0 0 2;
#X connect 30 0 0 2;
#X connect 31 0 0 2;
#X connect 32 0 30 0;
#X connect 33 0 31 0;
#X connect 34 0 0 2;
#X connect 35 0 36 0;
#X connect 36 0 40 0;
#X connect 37 0 38 0;
#X connect 38 0 39 0;
#X connect 39 0 34 0;
#X connect 40 0 37 0;
#X connect 41 0 25 0;
#X restore 702 103 pd granos;
#X obj 545 473 vsl 25 128 0 1 0 0 \$0-contacto-gain empty Ganancia_contacto
0 -9 0 10 -4034 -262144 -1 0 1;
#X text 523 615 agregar ctlin en caso \; de no poder amplificar \;
directo el micro \;;
#X obj 537 190 *~;
#X obj 537 248 throw~ L;
#X obj 632 248 throw~ R;
#X msg 555 137 \$1 5;
#X obj 555 161 line~;
#X obj 632 171 loadbang;
#X msg 632 195 0;
#X obj 537 219 flautalab/pan~;
#X obj 555 113 r \$0-contacto-gain;
#X obj 22 15 bng 15 250 50 0 empty empty empty 17 7 0 10 -262144 -1
-1;
#X obj 22 35 tabplay~ multi;
#X msg 1035 170 read -resize ./multi.wav multi;
#X obj 1035 194 soundfiler;
#N canvas 0 50 450 250 (subpatch) 0;
#X array multi 271395 float 2;
#X coords 0 1 271395 -1 100 50 1 0 0;
#X restore 1035 301 graph;
#X obj 187 273 lop~ 1000;
#X obj 537 15 bng 15 250 50 0 empty empty empty 17 7 0 10 -262144 -1
-1;
#X obj 537 35 tabplay~ keyrain;
#X obj 1055 247 soundfiler;
#X msg 1055 223 read -resize ./keyrain.wav keyrain;
#X obj 1035 141 loadbang;
#N canvas 0 50 450 250 (subpatch) 0;
#X array keyrain 1.51283e+006 float 2;
#X coords 0 1 1.51283e+006 -1 100 50 1 0 0;
#X restore 1035 376 graph;
#X obj 1118 532 tgl 25 0 empty empty empty 17 7 0 10 -4034 -1 -1 0
1;
#X obj 1141 591 t b b;
#X obj 1193 615 f;
#X obj 1228 615 + 1;
#X msg 1193 639 open rec\$1.wav;
#X msg 1141 615 start;
#X obj 1118 562 sel 0 1;
#X msg 1118 639 stop;
#X obj 1118 668 writesf~ 2;
#X msg 1211 586 0;
#X obj 331 54 expr ($f1/127*600)-300;
#X obj 656 447 / 16;
#X obj 142 447 / 32;
#X obj 144 35 s~ \$0-rec0;
#X obj 673 35 s~ \$0-rec1;
#X obj 1098 497 r~ \$0-rec0;
#X obj 1205 497 r~ \$0-rec1;
#X obj 646 64 bng 15 250 50 0 empty empty empty 17 7 0 10 -262144 -1
-1;
#X obj 656 423 ctlin 1 1;
#X obj 142 423 ctlin 1 3;
#X obj 331 30 ctlin 1 4;
#X connect 0 0 8 0;
#X connect 1 0 8 1;
#X connect 2 0 15 0;
#X connect 2 0 41 0;
#X connect 2 0 82 0;
#X connect 3 0 41 1;
#X connect 4 0 45 0;
#X connect 4 0 48 0;
#X connect 4 0 83 0;
#X connect 5 0 43 0;
#X connect 5 0 40 0;
#X connect 6 0 35 0;
#X connect 9 0 10 0;
#X connect 10 0 5 1;
#X connect 11 0 12 0;
#X connect 12 0 6 1;
#X connect 14 0 9 0;
#X connect 14 0 27 0;
#X connect 15 0 30 0;
#X connect 18 0 19 0;
#X connect 19 0 15 1;
#X connect 20 0 18 0;
#X connect 23 0 11 0;
#X connect 24 0 62 0;
#X connect 25 0 3 0;
#X connect 26 0 22 0;
#X connect 27 0 24 1;
#X connect 28 0 29 0;
#X connect 29 0 30 1;
#X connect 30 0 16 0;
#X connect 30 1 17 0;
#X connect 33 0 34 0;
#X connect 34 0 35 1;
#X connect 35 0 31 0;
#X connect 35 1 32 0;
#X connect 38 0 39 0;
#X connect 39 0 40 1;
#X connect 40 0 36 0;
#X connect 40 1 37 0;
#X connect 41 0 24 0;
#X connect 43 0 40 0;
#X connect 44 0 41 1;
#X connect 45 0 6 0;
#X connect 48 0 55 0;
#X connect 51 0 52 0;
#X connect 52 0 48 1;
#X connect 53 0 54 0;
#X connect 54 0 55 1;
#X connect 55 0 49 0;
#X connect 55 1 50 0;
#X connect 56 0 51 0;
#X connect 57 0 58 0;
#X connect 58 0 15 0;
#X connect 58 0 41 0;
#X connect 59 0 60 0;
#X connect 62 0 5 0;
#X connect 63 0 64 0;
#X connect 64 0 48 0;
#X connect 64 0 45 0;
#X connect 64 1 86 0;
#X connect 66 0 65 0;
#X connect 67 0 59 0;
#X connect 67 0 66 0;
#X connect 69 0 75 0;
#X connect 70 0 74 0;
#X connect 70 1 71 0;
#X connect 71 0 72 0;
#X connect 71 0 73 0;
#X connect 72 0 71 1;
#X connect 73 0 77 0;
#X connect 74 0 77 0;
#X connect 75 0 76 0;
#X connect 75 1 70 0;
#X connect 76 0 77 0;
#X connect 78 0 71 1;
#X connect 79 0 44 0;
#X connect 80 0 21 0;
#X connect 81 0 13 0;
#X connect 84 0 77 0;
#X connect 85 0 77 1;
#X connect 87 0 80 0;
#X connect 88 0 81 0;
#X connect 89 0 79 0;
