#N canvas 26 26 1366 685 12;
#X obj 166 63 bng 15 250 50 0 empty empty empty 17 7 0 10 #fcfcfc #000000
#000000;
#X obj 166 87 openpanel;
#N canvas 52 52 450 250 (subpatch) 0;
#X array sample 326880 float 2;
#X coords 0 1 326880 -1 200 140 1 0 0;
#X restore 522 83 graph;
#X obj 166 135 soundfiler;
#X msg 166 111 read -resize \$1 sample;
#X obj 272 173 bng 15 250 50 0 empty empty empty 17 7 0 10 #fcfcfc
#000000 #000000;
#X obj 272 247 tabplay~ sample;
#X obj 272 193 t b b;
#X obj 465 257 tgl 15 0 empty empty empty 17 7 0 10 #fcfcfc #000000
#000000 0 1;
#X obj 214 320 flautalab/granos-rt~;
#X msg 465 277 rec \$1;
#X msg 191 292 48 127;
#X obj 254 586 dac~;
#X msg 141 287 48 0;
#X obj 690 488 writesf~;
#X msg 737 441 open pala.wav;
#X msg 846 440 start;
#X msg 896 441 stop;
#X connect 0 0 1 0;
#X connect 1 0 4 0;
#X connect 4 0 3 0;
#X connect 5 0 7 0;
#X connect 6 0 9 1;
#X connect 6 0 12 0;
#X connect 6 0 12 1;
#X connect 6 0 14 0;
#X connect 7 0 6 0;
#X connect 7 1 8 0;
#X connect 8 0 10 0;
#X connect 9 0 12 0;
#X connect 9 0 12 1;
#X connect 9 0 14 0;
#X connect 10 0 9 2;
#X connect 11 0 9 0;
#X connect 13 0 9 0;
#X connect 15 0 14 0;
#X connect 16 0 14 0;
#X connect 17 0 14 0;
