#N canvas -8 -8 1600 857 16;
#X obj 101 105 cnv 15 198 190 empty empty empty 20 12 0 14 -232576
-66577 0;
#X obj 524 191 *~;
#X floatatom 614 246 5 0 0 0 - - -;
#X obj 615 382 *~;
#X obj 652 382 *~;
#X obj 132 152 vsl 15 128 0 0.8 0 0 empty empty Gain 0 -9 0 10 -4034
-262144 -159808 10500 1;
#X obj 175 151 vsl 15 128 0 1 0 0 empty empty Dry/Wet -11 -9 0 10 -4034
-262144 -159808 12700 1;
#X obj 210 151 vsl 15 128 0 2500 0 0 empty empty Time 0 -9 0 10 -4034
-262144 -159808 11000 1;
#X obj 250 153 vsl 15 128 0 1 0 0 empty empty Feedback 0 -9 0 10 -4034
-262144 -159808 5700 1;
#X obj 523 83 inlet~;
#X obj 524 275 *~;
#X obj 655 501 outlet~;
#X obj 1041 139 inlet;
#X obj 1107 138 inlet;
#X obj 1237 139 inlet;
#X obj 1305 139 inlet;
#X obj 617 211 delwrite~ \$0-audio_buffer 5000;
#X obj 652 406 send~ \$0-feedback_señal;
#X obj 758 171 receive~ \$0-feedback_señal;
#X obj 237 415 expr 1-$f1;
#X obj 614 338 delread4~ \$0-audio_buffer;
#X obj 614 303 line~;
#X msg 614 274 \$1 50;
#X connect 1 0 10 0;
#X connect 1 0 16 0;
#X connect 2 0 22 0;
#X connect 3 0 11 0;
#X connect 4 0 17 0;
#X connect 5 0 1 1;
#X connect 6 0 19 0;
#X connect 6 0 3 1;
#X connect 7 0 2 0;
#X connect 8 0 4 1;
#X connect 9 0 1 0;
#X connect 10 0 11 0;
#X connect 12 0 5 0;
#X connect 13 0 6 0;
#X connect 14 0 7 0;
#X connect 15 0 8 0;
#X connect 18 0 16 0;
#X connect 19 0 10 1;
#X connect 20 0 3 0;
#X connect 20 0 4 0;
#X connect 21 0 20 0;
#X connect 22 0 21 0;
#X coords 0 -1 1 1 200 200 2 100 100;
