#N canvas -8 -8 1370 729 12;
#X obj 668 158 s resynth_bang;
#X obj 722 119 s resynth_pitch;
#X obj 20 20 inlet~;
#X obj 135 548 outlet~;
#X obj 668 30 inlet;
#X text 70 19 entrada del audio a ser resintetizado;
#X text 517 158 gatillo de resíntesis;
#X text 522 119 valor de transposición en Hz;
#X obj 668 90 route bang float;
#X obj 660 302 cnv 1 300 60 empty empty MODULO_DE_RESÍNTESIS 13 29
0 23 #e0e0e0 #404040 0;
#X obj 19 107 resynth_unpack~;
#X obj 19 131 throw~ resynth_out;
#X obj 135 520 catch~ resynth_out;
#X obj 37 154 resynth_unpack~;
#X obj 37 178 throw~ resynth_out;
#X obj 55 202 resynth_unpack~;
#X obj 55 226 throw~ resynth_out;
#X obj 73 249 resynth_unpack~;
#X obj 73 273 throw~ resynth_out;
#X obj 91 297 resynth_unpack~;
#X obj 91 321 throw~ resynth_out;
#X obj 109 344 resynth_unpack~;
#X obj 109 368 throw~ resynth_out;
#X obj 127 392 resynth_unpack~;
#X obj 127 416 throw~ resynth_out;
#X obj 145 439 resynth_unpack~;
#X obj 145 463 throw~ resynth_out;
#X obj 494 22 loadbang;
#X msg 494 51 npts 4096;
#X msg 494 75 hop 1024;
#X obj 19 46 sigmund~ -npeak 16 peaks;
#X obj 19 70 route 0 1 2 3 4 5 6 7;
#X connect 2 0 30 0;
#X connect 4 0 8 0;
#X connect 8 0 0 0;
#X connect 8 1 1 0;
#X connect 10 0 11 0;
#X connect 12 0 3 0;
#X connect 13 0 14 0;
#X connect 15 0 16 0;
#X connect 17 0 18 0;
#X connect 19 0 20 0;
#X connect 21 0 22 0;
#X connect 23 0 24 0;
#X connect 25 0 26 0;
#X connect 27 0 28 0;
#X connect 27 0 29 0;
#X connect 30 0 31 0;
#X connect 31 0 10 0;
#X connect 31 1 13 0;
#X connect 31 2 15 0;
#X connect 31 3 17 0;
#X connect 31 4 19 0;
#X connect 31 5 21 0;
#X connect 31 6 23 0;
#X connect 31 7 25 0;
