#N canvas -8 -8 1370 729 12;
#X obj 318 229 unpack 0 0;
#X obj 300 374 osc~;
#X obj 300 403 *~, f 10;
#X obj 318 200 inlet;
#X obj 300 451 outlet~;
#X msg 300 287 \$1 1;
#X obj 300 316 line~;
#X obj 300 345 +~, f 7;
#X obj 300 258 f;
#X obj 367 258 f;
#X obj 300 171 r resynth_bang;
#X obj 346 316 r resynth_pitch;
#X obj 469 207 loadbang;
#X obj 469 231 random 1000;
#X obj 469 255 * 0.0005;
#X obj 469 279 + 0.05;
#X obj 469 303 osc~;
#X obj 300 427 *~;
#X obj 469 327 *~ 0.6;
#X obj 469 351 +~ 0.4;
#X connect 0 0 8 1;
#X connect 0 1 9 1;
#X connect 1 0 2 0;
#X connect 2 0 17 0;
#X connect 3 0 0 0;
#X connect 5 0 6 0;
#X connect 6 0 7 0;
#X connect 7 0 1 0;
#X connect 8 0 5 0;
#X connect 9 0 2 1;
#X connect 10 0 9 0;
#X connect 10 0 8 0;
#X connect 10 0 13 0;
#X connect 11 0 7 1;
#X connect 12 0 13 0;
#X connect 13 0 14 0;
#X connect 14 0 15 0;
#X connect 15 0 16 0;
#X connect 16 0 18 0;
#X connect 17 0 4 0;
#X connect 18 0 19 0;
#X connect 19 0 17 1;
