#N canvas -8 -8 1370 729 12;
#X obj 668 158 s resynth_bang;
#X obj 722 119 s resynth_pitch;
#X obj 20 20 inlet~;
#X obj 135 548 outlet~;
#X obj 668 30 inlet;
#X text 70 19 entrada del audio a ser resintetizado;
#X text 517 158 gatillo de resíntesis;
#X text 522 119 valor de transposición en Hz;
#X obj 668 90 route bang float;
#X obj 660 302 cnv 1 300 60 empty empty MODULO_DE_RESÍNTESIS 13 29
0 23 -233017 -66577 0;
#X obj 19 107 resynth_unpack~;
#X obj 37 154 resynth_unpack~;
#X obj 55 202 resynth_unpack~;
#X obj 73 249 resynth_unpack~;
#X obj 91 297 resynth_unpack~;
#X obj 109 344 resynth_unpack~;
#X obj 127 392 resynth_unpack~;
#X obj 145 439 resynth_unpack~;
#X obj 494 22 loadbang;
#X msg 494 51 npts 4096;
#X msg 494 75 hop 1024;
#X obj 19 46 sigmund~ -npeak 16 peaks;
#X obj 19 70 route 0 1 2 3 4 5 6 7;
#X obj 145 463 throw~ resynth_outL;
#X obj 127 416 throw~ resynth_outL;
#X obj 135 520 catch~ resynth_outL;
#X obj 285 548 outlet~;
#X obj 285 520 catch~ resynth_outR;
#X obj 295 463 throw~ resynth_outR;
#X obj 275 416 throw~ resynth_outR;
#X obj 255 368 throw~ resynth_outR;
#X obj 235 321 throw~ resynth_outR;
#X obj 215 273 throw~ resynth_outR;
#X obj 205 226 throw~ resynth_outR;
#X obj 185 178 throw~ resynth_outR;
#X obj 109 368 throw~ resynth_outL;
#X obj 91 321 throw~ resynth_outL;
#X obj 73 273 throw~ resynth_outL;
#X obj 55 226 throw~ resynth_outL;
#X obj 37 178 throw~ resynth_outL;
#X obj 19 131 throw~ resynth_outL;
#X obj 165 131 throw~ resynth_outR;
#X connect 2 0 21 0;
#X connect 4 0 8 0;
#X connect 8 0 0 0;
#X connect 8 1 1 0;
#X connect 10 0 40 0;
#X connect 10 1 41 0;
#X connect 11 0 39 0;
#X connect 11 1 34 0;
#X connect 12 0 38 0;
#X connect 12 1 33 0;
#X connect 13 0 37 0;
#X connect 13 1 32 0;
#X connect 14 0 36 0;
#X connect 14 1 31 0;
#X connect 15 0 35 0;
#X connect 15 1 30 0;
#X connect 16 0 24 0;
#X connect 16 1 29 0;
#X connect 17 0 23 0;
#X connect 17 1 28 0;
#X connect 18 0 19 0;
#X connect 18 0 20 0;
#X connect 21 0 22 0;
#X connect 22 0 10 0;
#X connect 22 1 11 0;
#X connect 22 2 12 0;
#X connect 22 3 13 0;
#X connect 22 4 14 0;
#X connect 22 5 15 0;
#X connect 22 6 16 0;
#X connect 22 7 17 0;
#X connect 25 0 3 0;
#X connect 27 0 26 0;
