#N canvas -8 -8 1370 729 12;
#X obj 318 229 unpack 0 0;
#X obj 300 442 osc~;
#X obj 300 471 *~, f 10;
#X obj 318 200 inlet;
#X obj 300 594 outlet~;
#X msg 300 287 \$1 1;
#X obj 300 316 line~;
#X obj 300 413 +~, f 7;
#X obj 300 258 f;
#X obj 367 258 f;
#X obj 300 121 r resynth_bang;
#X obj 346 287 r resynth_pitch;
#X obj 458 287 loadbang;
#X obj 458 316 random 1000;
#X obj 458 345 * 0.0005;
#X obj 458 369 + 0.05;
#X obj 458 398 osc~;
#X obj 300 495 *~, f 23;
#X obj 458 422 *~ 0.6;
#X obj 458 446 +~ 0.4;
#X msg 346 364 \$1 \$2;
#X obj 346 340 pack;
#X obj 480 179 loadbang;
#X obj 480 227 random 2;
#X obj 480 251 sel 0;
#X obj 346 388 line~;
#X obj 371 316 random 1100;
#X obj 480 203 metro 1500;
#X obj 630 388 * 0.001;
#X obj 370 594 outlet~;
#X obj 546 494 osc~;
#X obj 546 518 +~ 1;
#X obj 546 542 *~ 0.5;
#X obj 546 586 *~;
#X obj 630 436 line~;
#X obj 682 602 line~;
#X obj 711 381 random 1000;
#X obj 711 405 * 0.001;
#X obj 595 606 *~;
#X obj 734 431 expr 1-$f1;
#X obj 736 510 * 0.5;
#X obj 736 534 + 0.2;
#X obj 735 593 line~;
#X obj 300 569 *~;
#X obj 370 569 *~;
#X obj 300 145 t b b;
#X obj 711 459 * 0.85;
#X obj 711 483 + 0.15;
#X obj 630 364 + 150;
#X obj 630 340 random 550;
#X obj 659 205 metro 2500;
#X obj 659 229 random 2;
#X msg 682 578 \$1 350;
#X msg 735 569 \$1 350;
#X msg 630 412 \$1 200;
#X obj 659 253 sel 0;
#X connect 0 0 8 1;
#X connect 0 1 9 1;
#X connect 1 0 2 0;
#X connect 2 0 17 0;
#X connect 3 0 0 0;
#X connect 5 0 6 0;
#X connect 6 0 7 0;
#X connect 7 0 1 0;
#X connect 8 0 5 0;
#X connect 9 0 2 1;
#X connect 10 0 45 0;
#X connect 11 0 21 0;
#X connect 12 0 13 0;
#X connect 12 0 36 0;
#X connect 12 0 49 0;
#X connect 13 0 14 0;
#X connect 14 0 15 0;
#X connect 15 0 16 0;
#X connect 16 0 18 0;
#X connect 17 0 43 0;
#X connect 17 0 44 0;
#X connect 18 0 19 0;
#X connect 19 0 17 1;
#X connect 20 0 25 0;
#X connect 21 0 20 0;
#X connect 22 0 27 0;
#X connect 22 0 50 0;
#X connect 23 0 24 0;
#X connect 24 0 26 0;
#X connect 25 0 7 1;
#X connect 26 0 21 1;
#X connect 27 0 23 0;
#X connect 28 0 54 0;
#X connect 30 0 31 0;
#X connect 31 0 32 0;
#X connect 32 0 33 0;
#X connect 32 0 38 0;
#X connect 33 0 43 1;
#X connect 34 0 30 0;
#X connect 35 0 33 1;
#X connect 36 0 37 0;
#X connect 37 0 39 0;
#X connect 37 0 46 0;
#X connect 38 0 44 1;
#X connect 39 0 40 0;
#X connect 40 0 41 0;
#X connect 41 0 53 0;
#X connect 42 0 38 1;
#X connect 43 0 4 0;
#X connect 44 0 29 0;
#X connect 45 0 8 0;
#X connect 45 1 9 0;
#X connect 45 1 13 0;
#X connect 45 1 36 0;
#X connect 45 1 49 0;
#X connect 46 0 47 0;
#X connect 47 0 52 0;
#X connect 48 0 28 0;
#X connect 49 0 48 0;
#X connect 50 0 51 0;
#X connect 51 0 55 0;
#X connect 52 0 35 0;
#X connect 53 0 42 0;
#X connect 54 0 34 0;
#X connect 55 0 49 0;
#X connect 55 0 36 0;
